<mxfile host="app.diagrams.net" modified="2022-01-06T15:15:04.699Z" agent="5.0 (Macintosh; Intel Mac OS X 10_15_7) AppleWebKit/537.36 (KHTML, like Gecko) Chrome/96.0.4664.110 Safari/537.36" etag="D49geqhuY9drdajNPZyi" version="16.2.2" type="github">
  <diagram id="KmW7KK_8lDSuEo4gHdId" name="Page-1">
    <mxGraphModel dx="1831" dy="1205" grid="1" gridSize="10" guides="1" tooltips="1" connect="1" arrows="1" fold="1" page="1" pageScale="1" pageWidth="850" pageHeight="1100" math="0" shadow="0">
      <root>
        <mxCell id="0" />
        <mxCell id="1" parent="0" />
        <mxCell id="z96DseF9AYppn1QIO0Lc-10" style="rounded=0;orthogonalLoop=1;jettySize=auto;html=1;entryX=0;entryY=0.5;entryDx=0;entryDy=0;entryPerimeter=0;endArrow=block;endFill=0;startArrow=block;startFill=0;" edge="1" parent="1" source="z96DseF9AYppn1QIO0Lc-1" target="z96DseF9AYppn1QIO0Lc-2">
          <mxGeometry relative="1" as="geometry" />
        </mxCell>
        <mxCell id="z96DseF9AYppn1QIO0Lc-1" value="Controller" style="shape=cube;whiteSpace=wrap;html=1;boundedLbl=1;backgroundOutline=1;darkOpacity=0.05;darkOpacity2=0.1;size=10;shadow=0;" vertex="1" parent="1">
          <mxGeometry x="190" y="350" width="150" height="90" as="geometry" />
        </mxCell>
        <mxCell id="z96DseF9AYppn1QIO0Lc-9" style="rounded=0;orthogonalLoop=1;jettySize=auto;html=1;startArrow=block;startFill=0;endArrow=block;endFill=0;entryX=0;entryY=0.5;entryDx=0;entryDy=0;entryPerimeter=0;" edge="1" parent="1" source="z96DseF9AYppn1QIO0Lc-2" target="z96DseF9AYppn1QIO0Lc-3">
          <mxGeometry relative="1" as="geometry">
            <mxPoint x="680" y="410" as="targetPoint" />
          </mxGeometry>
        </mxCell>
        <mxCell id="z96DseF9AYppn1QIO0Lc-2" value="Business" style="shape=cube;whiteSpace=wrap;html=1;boundedLbl=1;backgroundOutline=1;darkOpacity=0.05;darkOpacity2=0.1;size=10;shadow=0;" vertex="1" parent="1">
          <mxGeometry x="390" y="350" width="150" height="90" as="geometry" />
        </mxCell>
        <mxCell id="z96DseF9AYppn1QIO0Lc-11" style="edgeStyle=orthogonalEdgeStyle;rounded=0;orthogonalLoop=1;jettySize=auto;html=1;entryX=0.5;entryY=0;entryDx=0;entryDy=0;endArrow=block;endFill=0;startArrow=block;startFill=0;" edge="1" parent="1" source="z96DseF9AYppn1QIO0Lc-3" target="z96DseF9AYppn1QIO0Lc-5">
          <mxGeometry relative="1" as="geometry" />
        </mxCell>
        <mxCell id="z96DseF9AYppn1QIO0Lc-3" value="DAL" style="shape=cube;whiteSpace=wrap;html=1;boundedLbl=1;backgroundOutline=1;darkOpacity=0.05;darkOpacity2=0.1;size=10;shadow=0;" vertex="1" parent="1">
          <mxGeometry x="600" y="350" width="145" height="90" as="geometry" />
        </mxCell>
        <mxCell id="z96DseF9AYppn1QIO0Lc-14" style="edgeStyle=orthogonalEdgeStyle;rounded=0;orthogonalLoop=1;jettySize=auto;html=1;entryX=1;entryY=0.5;entryDx=0;entryDy=0;startArrow=block;startFill=0;endArrow=block;endFill=0;" edge="1" parent="1" source="z96DseF9AYppn1QIO0Lc-5" target="z96DseF9AYppn1QIO0Lc-7">
          <mxGeometry relative="1" as="geometry" />
        </mxCell>
        <mxCell id="z96DseF9AYppn1QIO0Lc-5" value="Service" style="rounded=0;whiteSpace=wrap;html=1;shadow=1;" vertex="1" parent="1">
          <mxGeometry x="617.5" y="550" width="110" height="90" as="geometry" />
        </mxCell>
        <mxCell id="z96DseF9AYppn1QIO0Lc-16" style="edgeStyle=none;rounded=0;orthogonalLoop=1;jettySize=auto;html=1;entryX=0.5;entryY=1;entryDx=0;entryDy=0;dashed=1;startArrow=block;startFill=0;endArrow=block;endFill=0;" edge="1" parent="1" source="z96DseF9AYppn1QIO0Lc-6" target="z96DseF9AYppn1QIO0Lc-7">
          <mxGeometry relative="1" as="geometry">
            <Array as="points">
              <mxPoint x="485" y="745" />
            </Array>
          </mxGeometry>
        </mxCell>
        <mxCell id="z96DseF9AYppn1QIO0Lc-17" style="edgeStyle=none;rounded=0;orthogonalLoop=1;jettySize=auto;html=1;entryX=0.5;entryY=1;entryDx=0;entryDy=0;dashed=1;startArrow=block;startFill=0;endArrow=block;endFill=0;" edge="1" parent="1" source="z96DseF9AYppn1QIO0Lc-6" target="z96DseF9AYppn1QIO0Lc-5">
          <mxGeometry relative="1" as="geometry">
            <Array as="points">
              <mxPoint x="673" y="745" />
            </Array>
          </mxGeometry>
        </mxCell>
        <mxCell id="z96DseF9AYppn1QIO0Lc-6" value="Model" style="rounded=0;whiteSpace=wrap;html=1;shadow=1;" vertex="1" parent="1">
          <mxGeometry x="520" y="700" width="110" height="90" as="geometry" />
        </mxCell>
        <mxCell id="z96DseF9AYppn1QIO0Lc-19" style="edgeStyle=none;rounded=0;orthogonalLoop=1;jettySize=auto;html=1;entryX=0;entryY=0.5;entryDx=0;entryDy=0;entryPerimeter=0;startArrow=block;startFill=0;endArrow=block;endFill=0;" edge="1" parent="1" source="z96DseF9AYppn1QIO0Lc-7" target="z96DseF9AYppn1QIO0Lc-18">
          <mxGeometry relative="1" as="geometry" />
        </mxCell>
        <mxCell id="z96DseF9AYppn1QIO0Lc-7" value="Repository" style="rounded=0;whiteSpace=wrap;html=1;shadow=1;" vertex="1" parent="1">
          <mxGeometry x="430" y="550" width="110" height="90" as="geometry" />
        </mxCell>
        <mxCell id="z96DseF9AYppn1QIO0Lc-18" value="ORACLE" style="shape=cylinder3;whiteSpace=wrap;html=1;boundedLbl=1;backgroundOutline=1;size=15;shadow=1;" vertex="1" parent="1">
          <mxGeometry x="270" y="530" width="100" height="130" as="geometry" />
        </mxCell>
        <mxCell id="z96DseF9AYppn1QIO0Lc-21" style="edgeStyle=none;rounded=0;orthogonalLoop=1;jettySize=auto;html=1;entryX=0;entryY=0;entryDx=0;entryDy=40;entryPerimeter=0;startArrow=block;startFill=0;endArrow=block;endFill=0;" edge="1" parent="1" source="z96DseF9AYppn1QIO0Lc-20" target="z96DseF9AYppn1QIO0Lc-1">
          <mxGeometry relative="1" as="geometry" />
        </mxCell>
        <mxCell id="z96DseF9AYppn1QIO0Lc-20" value="Client" style="shape=umlActor;verticalLabelPosition=bottom;verticalAlign=top;html=1;outlineConnect=0;" vertex="1" parent="1">
          <mxGeometry x="70" y="360" width="30" height="60" as="geometry" />
        </mxCell>
        <mxCell id="z96DseF9AYppn1QIO0Lc-24" style="edgeStyle=none;rounded=0;orthogonalLoop=1;jettySize=auto;html=1;entryX=0;entryY=0;entryDx=70;entryDy=0;entryPerimeter=0;startArrow=block;startFill=0;endArrow=block;endFill=0;" edge="1" parent="1" source="z96DseF9AYppn1QIO0Lc-22" target="z96DseF9AYppn1QIO0Lc-2">
          <mxGeometry relative="1" as="geometry" />
        </mxCell>
        <mxCell id="z96DseF9AYppn1QIO0Lc-25" style="edgeStyle=none;rounded=0;orthogonalLoop=1;jettySize=auto;html=1;entryX=0;entryY=0;entryDx=67.5;entryDy=0;entryPerimeter=0;startArrow=block;startFill=0;endArrow=block;endFill=0;" edge="1" parent="1" source="z96DseF9AYppn1QIO0Lc-22" target="z96DseF9AYppn1QIO0Lc-3">
          <mxGeometry relative="1" as="geometry">
            <Array as="points">
              <mxPoint x="460" y="320" />
              <mxPoint x="668" y="320" />
            </Array>
          </mxGeometry>
        </mxCell>
        <mxCell id="z96DseF9AYppn1QIO0Lc-26" style="edgeStyle=none;rounded=0;orthogonalLoop=1;jettySize=auto;html=1;entryX=0;entryY=0;entryDx=70;entryDy=0;entryPerimeter=0;startArrow=block;startFill=0;endArrow=block;endFill=0;" edge="1" parent="1" source="z96DseF9AYppn1QIO0Lc-22" target="z96DseF9AYppn1QIO0Lc-1">
          <mxGeometry relative="1" as="geometry">
            <Array as="points">
              <mxPoint x="460" y="320" />
              <mxPoint x="260" y="320" />
            </Array>
          </mxGeometry>
        </mxCell>
        <mxCell id="z96DseF9AYppn1QIO0Lc-22" value="Helpers" style="rounded=0;whiteSpace=wrap;html=1;shadow=1;" vertex="1" parent="1">
          <mxGeometry x="400" y="170" width="120" height="90" as="geometry" />
        </mxCell>
        <mxCell id="z96DseF9AYppn1QIO0Lc-27" style="edgeStyle=none;rounded=0;orthogonalLoop=1;jettySize=auto;html=1;startArrow=block;startFill=0;endArrow=block;endFill=0;" edge="1" parent="1" source="z96DseF9AYppn1QIO0Lc-23">
          <mxGeometry relative="1" as="geometry">
            <mxPoint x="260" y="350" as="targetPoint" />
          </mxGeometry>
        </mxCell>
        <mxCell id="z96DseF9AYppn1QIO0Lc-23" value="Entities" style="rounded=0;whiteSpace=wrap;html=1;shadow=1;" vertex="1" parent="1">
          <mxGeometry x="200" y="170" width="120" height="90" as="geometry" />
        </mxCell>
      </root>
    </mxGraphModel>
  </diagram>
</mxfile>
